<?xml version="1.0" standalone="no"?><!DOCTYPE svg PUBLIC "-//W3C//DTD SVG 1.1//EN" "http://www.w3.org/Graphics/SVG/1.1/DTD/svg11.dtd"><svg t="1634800554845" class="icon" viewBox="0 0 1024 1024" version="1.1" xmlns="http://www.w3.org/2000/svg" p-id="792" xmlns:xlink="http://www.w3.org/1999/xlink" width="16" height="16"><defs><style type="text/css"></style></defs><path d="M682.666667 384a170.666667 170.666667 0 0 0-341.333334 0H256a256 256 0 0 1 512 0h-85.333333zM256 512a42.666667 42.666667 0 0 1 42.666667-42.666667h426.666666a42.666667 42.666667 0 0 1 42.666667 42.666667v256a42.666667 42.666667 0 0 1-42.666667 42.666667H298.666667a42.666667 42.666667 0 0 1-42.666667-42.666667v-256z m0-128a85.333333 85.333333 0 0 0-85.333333 85.333333v341.333334a85.333333 85.333333 0 0 0 85.333333 85.333333h512a85.333333 85.333333 0 0 0 85.333333-85.333333v-341.333334a85.333333 85.333333 0 0 0-85.333333-85.333333H256z m256 170.666667a42.666667 42.666667 0 0 0-42.666667 42.666666v85.333334a42.666667 42.666667 0 1 0 85.333334 0v-85.333334a42.666667 42.666667 0 0 0-42.666667-42.666666z" p-id="793" fill="#1296db"></path></svg>